PathFileType	4	(X/Y/Z)	D:\																																																																			
DataRate	CameraRate	NumFrames	NumMarkers	Units	OrigDataRate	OrigDataStartFrame	OrigNumFrames																																																															
240	240	8	21	mm	240	625	833																																																															
Frame#	Time	Top.Head			Front.Head			Rear.Head			R.Shoulder			R.Elbow			R.Wrist			L.Shoulder			L.Elbow			L.Wrist			Offset1			R.ASIS			L.ASIS			V.Sacral			R.Knee			R.Ankle			R.Toe			R.Heel			L.Knee			L.Ankle			L.Toe			L.Heel			V_Head			V_Pelvis		
		X1	Y1	Z1	X2	Y2	Z2	X3	Y3	Z3	X4	Y4	Z4	X5	Y5	Z5	X6	Y6	Z6	X7	Y7	Z7	X8	Y8	Z8	X9	Y9	Z9	X10	Y10	Z10	X11	Y11	Z11	X12	Y12	Z12	X13	Y13	Z13	X14	Y14	Z14	X15	Y15	Z15	X16	Y16	Z16	X17	Y17	Z17	X18	Y18	Z18	X19	Y19	Z19	X20	Y20	Z20	X21	Y21	Z21	X22	Y22	Z22	X23	Y23	Z23
																																																																						
625	2.6	485.40051	123.53575	1395.76196	481.005	231.32361	1340.2804	476.78918	40.92175	1346.11707	643.44055	83.96335	1060.22949	622.32513	73.31349	739.95398	431.6792	188.11932	875.67542	285.53229	84.62083	1098.34888	249.54196	86.82295	767.84198	454.37955	147.13438	899.14172	565.31696	-95.98511	1001.08575	616.48438	-197.22235	663.87018	266.46771	-144.99478	658.46863	442.06018	-321.87976	651.97998	684.19562	77.31664	365.6629	636.02118	-171.37859	113.84508	675.81433	12.37712	39.24304	566.98779	-245.19957	61.77416	228.02878	128.51344	384.2608	231.51933	-157.35487	117.79014	211.26566	6.27821	47.74426	289.95667	-245.57835	76.5385	478.89709	136.12271	1343.19861	431.11914	-240.98859	656.64911
626	2.604	485.13776	126.36824	1394.26355	480.61975	233.5994	1337.71802	476.63171	43.32797	1345.43945	643.16925	84.50479	1058.97241	622.17267	73.26524	738.66699	431.44736	188.21503	874.10504	285.31799	84.83446	1096.97656	249.48813	86.57457	766.43408	454.26135	147.18578	897.64777	565.34888	-95.59332	1000.16418	616.88043	-197.12833	662.9292	266.55243	-145.44739	657.53766	442.6171	-322.08078	651.05444	684.15869	77.61311	364.96298	636.09814	-171.50241	113.65005	675.79279	12.35733	39.25871	567.09747	-245.27002	61.48112	227.87663	128.62346	384.32617	231.37386	-157.2735	117.9993	211.23833	6.29935	47.70921	289.83032	-245.45731	76.83513	478.62573	138.46368	1341.57861	431.46844	-241.22992	655.7157
627	2.608	484.85651	129.20262	1392.8501	480.20184	235.86221	1335.21069	476.47479	45.73398	1344.88232	642.88831	85.00232	1057.83252	622.0481	73.21003	737.50867	431.21686	188.30167	872.61383	285.11761	85.0244	1095.72046	249.39252	86.32048	765.14539	454.14102	147.25121	896.24969	565.38202	-95.23471	999.32123	617.258	-196.9859	662.07434	266.63226	-145.8461	656.60571	443.173	-322.25476	650.20667	684.11884	77.8828	364.25812	636.1629	-171.62167	113.44487	675.77063	12.33529	39.27628	567.18634	-245.36253	61.18835	227.78201	128.70711	384.30701	231.24438	-157.24171	118.17088	211.21527	6.31361	47.68022	289.70944	-245.36639	77.07519	478.33832	140.79813	1340.04639	431.8056	-241.41867	654.83936
628	2.612	484.5563	132.03505	1391.51636	479.75021	238.10471	1332.75647	476.31863	48.12463	1344.43994	642.60663	85.45706	1056.80615	621.95447	73.15523	736.47809	430.98602	188.37222	871.21021	284.93188	85.18431	1094.57373	249.26376	86.06267	763.97266	454.01169	147.32874	894.95593	565.41992	-94.90779	998.55237	617.61755	-196.79758	661.30902	266.71796	-146.19768	655.69568	443.72556	-322.40356	649.42883	684.07251	78.14354	363.58392	636.21539	-171.72456	113.25276	675.74945	12.31229	39.29349	567.24774	-245.46971	60.92509	227.74603	128.76839	384.21326	231.14122	-157.23999	118.30093	211.19691	6.32168	47.65874	289.60422	-245.30585	77.2598	478.03439	143.11469	1338.59814	432.13708	-241.55681	654.02423
629	2.617	484.23758	134.86174	1390.25635	479.2644	240.31815	1330.35596	476.16226	50.48819	1344.10376	642.3316	85.87164	1055.89001	621.89203	73.10472	735.57043	430.75314	188.42041	869.90112	284.7594	85.30836	1093.52808	249.11234	85.80598	762.91144	453.86627	147.41289	893.77332	565.46289	-94.60947	997.85376	617.96478	-196.56999	660.63159	266.82028	-146.50642	654.82794	444.27112	-322.52759	648.71246	684.01544	78.41237	362.97037	636.25787	-171.80194	113.09512	675.73041	12.28993	39.30774	567.27972	-245.58072	60.71616	227.76471	128.8119	384.05884	231.0697	-157.25407	118.38976	211.183	6.32496	47.64571	289.52502	-245.27255	77.39073	477.71332	145.4032	1337.22986	432.47061	-241.64827	653.27191
630	2.621	483.90106	137.6776	1389.06494	478.74606	242.49319	1328.01172	476.00357	52.81735	1343.86316	642.0686	86.24866	1055.07947	621.85828	73.06133	734.77771	430.51797	188.44089	868.69287	284.59668	85.39226	1092.57666	248.94804	85.55666	761.95605	453.70004	147.49507	892.70679	565.50934	-94.33665	997.22351	618.30719	-196.31508	660.03723	266.94849	-146.77612	654.01917	444.80746	-322.62619	648.04901	683.94348	78.70213	362.43951	636.29517	-171.84741	112.98854	675.71442	12.27064	39.31684	567.28656	-245.68556	60.58164	227.83054	128.84254	383.862	231.03186	-157.27414	118.4407	211.17342	6.3259	47.64189	289.47952	-245.26099	77.47086	477.37482	147.65527	1335.9375	432.81284	-241.70006	652.58197
631	2.625	483.54843	140.47585	1387.93811	478.2002	244.61929	1325.72742	475.84027	55.10852	1343.70557	641.82245	86.59009	1054.36914	621.84906	73.02901	734.09082	430.28192	188.42947	867.59125	284.44022	85.4334	1091.71411	248.77847	85.31908	761.09979	453.51154	147.56522	891.75848	565.55872	-94.08742	996.66248	618.65051	-196.04921	659.51843	267.10803	-147.01213	653.28448	445.33472	-322.69998	647.43115	683.85309	79.0211	362.00436	636.33307	-171.85516	112.94316	675.70276	12.25746	39.31967	567.27942	-245.77687	60.53712	227.93535	128.86617	383.64325	231.02841	-157.29286	118.45867	211.1683	6.32758	47.64777	289.47186	-245.2644	77.50428	477.02023	149.86392	1334.71655	433.16705	-241.72267	651.95343
632	2.629	483.1832	143.24873	1386.87329	477.63397	246.68451	1323.50574	475.67087	57.3634	1343.61743	641.59747	86.89856	1053.75415	621.86096	73.01208	733.50189	430.04617	188.38242	866.60181	284.28745	85.43202	1090.93689	248.60968	85.09441	760.33545	453.30191	147.61476	890.92798	565.61133	-93.86151	996.17212	618.99664	-195.78778	659.06622	267.29904	-147.22253	652.63617	445.853	-322.75189	646.85443	683.74139	79.37556	361.66949	636.37689	-171.81822	112.96367	675.69635	12.25323	39.31585	567.27435	-245.84863	60.59256	228.07259	128.89107	383.42163	231.05978	-157.30479	118.4496	211.168	6.33298	47.66285	289.50391	-245.27596	77.49636	476.6524	152.02396	1333.56177	433.53265	-241.72795	651.38531
